<svg version="1.1" id="Layer_1" xmlns="http://www.w3.org/2000/svg" xmlns:xlink="http://www.w3.org/1999/xlink" x="0px" y="0px"
	 width="100%" viewBox="0 0 1024 1024" enable-background="new 0 0 1024 1024" xml:space="preserve">
<path fill="#000000" opacity="1.000000" stroke="none" 
	d="
M228.271027,532.685791 
	C227.063293,530.252991 225.306198,529.264587 223.066376,528.670349 
	C216.983917,527.056702 211.565933,523.987244 207.271652,519.480774 
	C202.488983,514.461853 196.566666,512.441467 190.079987,511.254730 
	C186.422943,510.585663 184.523041,512.711548 182.903336,515.429749 
	C178.728592,522.435852 176.464539,529.985107 177.028625,538.289185 
	C174.666031,538.051819 175.109207,536.590454 175.022415,535.622192 
	C173.500793,518.644470 174.059067,501.684509 175.890625,484.774872 
	C179.763794,449.016541 189.896271,415.024445 205.431824,382.643433 
	C224.603424,342.683716 250.696884,307.765442 282.846893,277.335419 
	C324.729279,237.693588 373.819702,210.822952 429.374268,195.961258 
	C453.340149,189.549988 477.855988,186.182968 502.801666,185.479706 
	C535.172058,184.567139 567.017273,187.828690 598.121704,196.442596 
	C677.338684,218.380554 740.608093,263.273499 788.576721,330.019165 
	C814.174255,365.636780 832.630920,404.488220 842.634705,447.175690 
	C851.170898,483.600677 853.254456,520.409790 848.512756,557.676819 
	C843.551208,596.671448 833.619263,634.111938 815.476318,669.067383 
	C775.798767,745.513123 716.030334,800.472290 636.821777,834.080688 
	C607.689209,846.441711 577.049927,853.271423 545.539734,856.476074 
	C478.242584,863.320190 414.885101,850.252930 355.587219,818.256104 
	C287.739594,781.645935 237.130844,728.309326 204.589874,658.274902 
	C190.256485,627.426697 180.804184,595.068848 177.282364,561.113525 
	C177.051468,558.887268 177.051575,558.887268 178.520523,556.094666 
	C180.895157,557.229187 181.295868,559.712646 182.296051,561.710571 
	C185.487427,568.085632 188.907227,569.589600 195.603653,567.090454 
	C198.435776,566.033447 201.242599,565.106628 204.281754,564.920227 
	C208.023407,564.690796 210.872650,563.031860 212.877167,559.738953 
	C214.166794,557.620422 215.906097,555.780090 217.378357,553.767151 
	C219.211472,551.260803 221.279022,549.695862 224.580292,551.191162 
	C226.313187,551.976074 228.758987,551.551758 228.472733,549.689819 
	C227.610657,544.082214 229.645081,538.548523 228.271027,532.685791 
M388.550415,579.134949 
	C389.816742,579.121277 390.516998,581.128296 392.131653,580.130249 
	C393.610687,576.173340 392.353058,571.092346 396.528259,568.194519 
	C398.871368,569.031189 399.376953,570.943481 399.873016,572.626221 
	C402.302948,580.869019 403.259949,589.649719 409.628265,596.348206 
	C410.996948,597.787903 410.603027,599.862427 407.980194,600.412415 
	C406.867157,600.645813 405.632935,600.708435 404.988129,601.908691 
	C407.026581,606.498962 409.333710,608.357910 413.587097,608.836975 
	C419.695526,609.525024 423.627472,614.761475 422.617584,621.133057 
	C418.086212,620.297791 413.562988,619.596313 409.249390,617.781921 
	C407.592133,617.084900 405.396240,616.835938 404.560791,619.130676 
	C403.728302,621.417480 405.086945,622.955688 407.092987,623.896667 
	C408.141022,624.388306 409.246002,624.821106 410.371643,625.073425 
	C414.466736,625.991211 418.580048,626.823364 419.266846,631.958740 
	C421.666443,631.529663 422.256500,629.992676 422.834351,628.396423 
	C424.024445,625.108643 425.295837,621.850037 426.462799,618.554260 
	C426.955200,617.163513 426.987091,615.427979 428.879883,615.158569 
	C430.832764,614.880554 431.783203,616.398438 432.890045,617.652588 
	C434.654938,619.652283 434.005310,622.923340 436.569122,624.610168 
	C439.507660,623.588501 441.479431,621.848877 441.612610,618.555237 
	C441.682922,616.815735 440.826965,615.937744 439.166504,615.308105 
	C433.609344,613.200806 432.967834,610.706238 437.141388,606.556030 
	C439.583099,604.127991 440.499695,601.461914 440.708282,598.126587 
	C441.383575,587.330383 443.387878,576.697144 445.091431,566.033264 
	C445.358826,564.359680 445.583588,562.037170 448.084961,562.060059 
	C450.624390,562.083191 451.929688,563.752014 452.273102,566.193848 
	C452.967651,571.131958 453.364777,576.133057 454.404358,580.997009 
	C456.519409,590.892639 453.821533,602.425842 464.190338,609.632874 
	C466.149658,610.994751 465.621399,613.334106 463.193634,614.359558 
	C461.849243,614.927429 460.309601,615.058594 458.844940,615.311096 
	C455.349457,615.914001 454.136749,618.431274 456.163666,621.324829 
	C457.502716,623.236328 459.389435,624.546753 461.734192,624.984741 
	C463.325073,622.891235 462.521606,617.485962 466.797974,620.140686 
	C471.217468,622.884155 475.138977,626.832031 478.311035,630.990784 
	C479.636841,632.729065 482.323761,635.085938 481.233368,638.449707 
	C477.265259,638.406799 475.667053,634.046570 472.011963,633.705261 
	C470.347260,637.153198 472.402069,639.192932 474.313782,641.288818 
	C476.640106,643.839294 477.471893,646.458313 474.371155,649.009338 
	C470.726471,652.007874 472.417999,654.557251 475.123413,656.769226 
	C476.645477,658.013672 478.611359,658.702209 480.321869,659.733215 
	C481.930542,660.702820 483.490448,661.848328 482.846710,664.081543 
	C482.257263,666.126404 480.553406,666.792847 478.624664,667.023621 
	C477.361755,667.174805 475.920258,666.617554 474.391541,668.710266 
	C478.487396,671.963440 482.189362,676.292969 486.883850,678.294434 
	C493.311737,681.034851 496.224609,678.309387 495.543091,671.525696 
	C495.032928,666.447571 498.599060,663.835876 501.312592,660.095581 
	C506.054993,663.592957 509.215790,667.229553 508.241058,673.227234 
	C507.595032,677.202515 509.206421,679.102234 513.476318,678.842834 
	C517.119812,678.621521 520.803223,678.700195 524.407288,679.629456 
	C526.254456,680.105835 528.137146,680.545227 528.188538,682.886353 
	C528.245056,685.459229 526.626099,686.928833 524.260864,687.281494 
	C521.304688,687.722229 518.299194,688.042480 515.314270,688.048340 
	C482.484497,688.112671 449.654633,688.118469 416.824799,688.090637 
	C414.506805,688.088684 412.123749,687.968018 409.884521,687.429932 
	C404.731293,686.191345 403.293762,681.555664 406.588104,677.512939 
	C407.283508,676.659607 408.794464,676.454956 408.686310,674.871033 
	C407.443542,672.882568 405.601654,671.469666 403.598846,670.264954 
	C400.982208,668.690918 399.109985,669.440796 399.452179,672.524597 
	C400.418335,681.231262 398.962463,690.884155 408.636444,696.402344 
	C412.008331,698.325684 410.460938,700.133362 407.612488,701.087341 
	C405.675323,701.736084 403.155182,700.992981 401.943390,703.652527 
	C404.170410,709.627686 411.098602,710.204285 415.151184,714.311523 
	C412.377502,717.445374 408.793915,715.878845 405.967529,717.037048 
	C404.439575,717.663147 401.745239,716.651978 401.803894,719.427429 
	C401.854065,721.802002 404.164886,721.919617 405.953827,722.173462 
	C407.258881,722.358704 408.608185,722.359131 409.928955,722.284973 
	C416.067963,721.940247 421.651337,722.982178 426.848236,726.798279 
	C432.065735,730.629578 437.672302,734.045471 443.447662,736.974304 
	C451.017395,740.813232 459.053406,738.770081 468.206726,738.705261 
	C465.535522,735.476990 463.210388,734.521667 461.117126,733.239990 
	C454.441467,729.152527 447.765656,725.064087 441.147919,720.884155 
	C439.558899,719.880432 438.213257,718.468567 439.286713,716.307678 
	C440.415802,714.034729 442.329437,713.999146 444.410065,714.750061 
	C445.348083,715.088501 446.289459,715.450623 447.166840,715.919006 
	C457.304443,721.330627 467.529388,726.589294 477.526794,732.249512 
	C485.258484,736.626831 492.375793,736.197632 499.556244,730.051941 
	C494.431824,727.489624 489.647278,724.534668 484.874756,721.531250 
	C477.362762,716.803833 471.165771,708.801819 460.618866,710.905884 
	C460.347961,710.959961 459.983978,710.714355 459.705902,710.540527 
	C453.634460,706.745911 447.548523,702.973694 441.516632,699.116882 
	C439.959961,698.121460 439.278748,696.517822 440.141327,694.776978 
	C440.910767,693.224182 442.500153,693.050049 444.061371,693.312195 
	C448.798920,694.107666 452.728424,696.631409 456.575653,699.294861 
	C458.218475,700.432129 459.739594,701.850708 461.917542,701.709900 
	C468.941528,701.255859 475.696075,703.216553 480.434235,707.880920 
	C491.580566,718.853699 504.958038,719.882935 519.220337,718.701538 
	C521.207031,718.536987 523.226868,718.549927 525.216492,718.690796 
	C529.150085,718.969238 532.803223,718.001404 536.390869,716.545837 
	C557.837708,707.844116 579.293884,699.165466 600.724243,690.423584 
	C601.606506,690.063660 603.053406,689.971191 602.981323,688.170776 
	C597.255798,688.170776 591.601135,688.168884 585.946472,688.171326 
	C580.280334,688.173767 574.612976,688.247559 568.948608,688.149170 
	C566.959961,688.114685 564.616089,687.876221 564.334106,685.317078 
	C564.086182,683.066528 566.239807,682.414062 567.861694,681.639893 
	C569.209778,680.996399 570.619934,680.439697 572.055542,680.030640 
	C576.934204,678.640808 581.836365,677.333374 587.004944,675.919128 
	C584.711426,672.343079 581.519958,672.363953 578.342346,672.361023 
	C561.009705,672.345215 543.676880,672.364929 526.344604,672.277039 
	C524.159180,672.265991 520.974731,673.239258 520.240662,670.375122 
	C519.421387,667.178467 522.851807,666.502991 524.943420,665.492188 
	C537.880798,659.240173 549.999695,651.620789 561.883911,643.609497 
	C577.231323,633.263550 591.518005,621.484192 606.361572,610.456360 
	C609.244446,608.314575 611.402405,608.125916 614.266724,610.465210 
	C621.876587,616.680115 629.865662,622.438721 637.353210,628.792175 
	C641.204102,632.059814 643.837708,631.109619 647.210266,628.279663 
	C653.705139,622.829590 660.466980,617.695984 667.162231,612.487854 
	C668.600098,611.369446 670.041809,609.724304 673.116211,611.458618 
	C664.069885,619.682068 653.974670,625.795837 645.386719,633.976624 
	C648.172424,637.743774 650.887756,639.924438 655.230713,636.260132 
	C657.662720,634.208191 660.456116,632.584473 664.220825,629.984558 
	C662.355408,635.993896 656.621704,637.071167 654.944763,641.689331 
	C657.555359,644.891113 660.450989,646.036682 664.240540,643.207214 
	C665.552612,642.227600 667.102356,641.492432 668.642517,640.904846 
	C675.256836,638.381409 679.442017,634.154053 679.728333,626.623047 
	C679.866455,622.990723 680.538269,619.357300 681.234314,615.776001 
	C681.612976,613.827393 682.399841,611.753357 685.010437,611.855347 
	C687.314087,611.945251 687.986267,613.758972 688.335999,615.615234 
	C688.765259,617.893555 689.088806,620.197937 689.329590,622.504456 
	C689.985168,628.785706 690.090942,635.179688 696.019897,639.480652 
	C698.710327,641.432251 697.545532,643.421997 695.251160,645.061279 
	C689.243530,649.353699 689.126526,652.088318 694.299133,657.574768 
	C696.417236,659.821289 699.681213,660.861267 701.174988,663.982361 
	C699.277100,666.859619 696.148865,666.562195 693.551208,667.237549 
	C690.576721,668.010681 691.002808,670.063538 691.637085,671.918518 
	C692.202942,673.573303 693.561523,676.017090 695.507935,674.640991 
	C700.815918,670.888123 707.070740,668.334961 711.555298,663.363464 
	C709.619812,660.919617 707.159851,660.601501 705.160767,659.483459 
	C703.608521,658.615295 701.277588,658.382690 701.075867,656.256287 
	C700.851196,653.887146 703.209290,653.130310 704.761047,651.958923 
	C706.958008,650.300598 709.940125,649.554199 711.120178,646.527893 
	C708.703491,643.740662 703.935425,644.704712 701.935425,640.760681 
	C705.587891,636.752075 709.364380,633.350830 714.251770,632.048218 
	C716.584290,634.343018 714.095947,636.454102 715.436096,638.443298 
	C720.125183,638.961365 724.563477,638.908813 727.319214,633.745789 
	C723.143616,630.427490 714.861389,634.331055 714.011963,625.703064 
	C719.044800,622.985229 725.028687,621.713379 728.045105,616.168457 
	C723.287231,612.926392 719.167908,613.211426 715.331116,617.173645 
	C714.297424,618.241272 713.016602,619.075317 711.820862,619.979004 
	C709.366394,621.834045 706.714905,622.124451 704.687439,619.685059 
	C702.481323,617.030884 705.030762,615.394287 706.773315,614.019897 
	C712.396545,609.584656 718.158386,605.325684 723.826965,600.947144 
	C725.045898,600.005554 727.278381,599.246521 726.056213,597.170715 
	C724.594116,594.687317 722.741394,596.493896 721.429077,597.500427 
	C715.351074,602.162231 709.426025,607.023254 703.361511,611.703125 
	C701.049377,613.487366 698.385010,617.788757 695.596130,614.388367 
	C692.666626,610.816467 697.335144,608.603699 699.740723,606.735657 
	C709.458313,599.189392 717.842407,590.215576 727.700500,581.765686 
	C726.267517,581.578491 725.646606,581.498718 725.026123,581.416016 
	C722.898804,581.132385 719.780212,580.939026 720.902893,578.065552 
	C721.863708,575.606323 724.029419,572.427429 727.482788,573.037720 
	C732.868591,573.989441 737.518005,571.028259 738.728333,564.979553 
	C735.881714,563.745056 732.872620,564.482422 729.946228,564.392700 
	C726.833435,564.297180 725.744446,568.837341 721.275940,567.708191 
	C724.926208,563.223999 726.072937,557.487427 731.681519,554.940369 
	C733.787048,553.984131 735.946838,552.927917 737.698486,551.459900 
	C740.821716,548.842407 740.337769,546.288879 736.568481,544.637207 
	C734.858887,543.888062 732.997192,543.486267 729.971191,542.542114 
	C738.291748,534.243774 742.994019,525.115234 741.460144,513.666748 
	C739.146851,514.225037 738.122681,516.111633 736.575073,517.303650 
	C735.111633,518.430786 733.552185,519.966614 731.783447,518.217041 
	C729.846497,516.301208 730.609253,514.145752 732.323181,512.499512 
	C735.445374,509.500549 738.604187,506.516479 741.966980,503.797363 
	C746.015442,500.523834 749.119690,501.604828 750.223938,506.719086 
	C751.169434,511.098206 751.838562,515.561279 752.267029,520.022034 
	C752.919067,526.809387 753.133240,533.463745 759.074219,538.519226 
	C762.266907,541.236023 761.316833,543.205444 757.156006,544.495911 
	C753.037109,545.773315 752.191467,549.260010 755.121033,552.474609 
	C759.033997,556.768311 762.243958,554.312500 765.651062,551.667664 
	C768.350403,549.572205 768.878052,547.685852 765.429810,546.173401 
	C763.227661,545.207458 763.051636,543.698425 762.519287,541.614807 
	C761.278137,536.756653 762.943542,531.475830 760.449158,526.957520 
	C758.064453,522.637573 758.767151,517.866577 757.862610,513.343628 
	C757.352356,510.792328 759.201599,509.858398 761.515625,509.736450 
	C763.529724,509.630310 766.047668,509.654114 766.338196,507.177185 
	C766.870850,502.636719 768.391357,498.107483 767.261719,493.142944 
	C763.953308,493.803802 762.094849,496.307556 759.665466,497.903992 
	C757.673096,499.213226 755.457581,502.565704 752.960083,499.362213 
	C750.871643,496.683472 753.855164,494.941467 755.591919,493.263184 
	C760.257568,488.754578 765.544800,484.900085 769.639343,479.785522 
	C770.982239,478.108154 772.401306,476.158813 774.995605,477.034180 
	C777.337097,477.824219 778.090881,479.859283 778.354614,482.140808 
	C779.346008,490.718384 780.333069,499.296600 781.364075,507.869446 
	C781.890503,512.246277 782.098083,516.822205 786.938538,519.226501 
	C788.799377,516.869812 788.693726,514.344116 788.633667,511.884399 
	C788.284119,497.557587 787.050659,483.312897 784.133118,469.263062 
	C773.600403,418.540039 749.909912,374.639648 714.853638,336.775543 
	C679.172363,298.236450 636.120850,271.347412 585.686401,256.575104 
	C549.377991,245.940323 512.441040,243.975754 474.966827,249.019028 
	C438.577667,253.916290 404.895111,266.385254 373.503235,284.972351 
	C327.056488,312.473450 291.594269,350.594299 266.396912,398.288574 
	C241.318542,445.757629 232.580719,496.277405 238.262451,549.478394 
	C238.428955,551.037354 238.607468,552.570190 240.423584,552.987061 
	C241.692657,553.278320 242.775101,552.654724 243.313034,551.509705 
	C243.974075,550.102661 244.368896,548.230896 242.943542,547.371704 
	C238.162277,544.489746 240.688599,540.702148 241.500931,537.218201 
	C241.946625,535.306641 243.134995,533.580994 243.803406,531.705566 
	C244.692017,529.212341 244.597046,527.088196 241.295532,526.494873 
	C237.336975,525.783569 237.526733,523.457397 239.102478,520.625061 
	C240.301834,518.469299 242.352097,516.782654 242.613846,514.107605 
	C243.293549,507.161285 243.870285,500.201447 244.726349,493.276489 
	C246.356430,480.090118 248.074142,466.912964 249.966476,453.762329 
	C250.241577,451.850616 250.243683,449.058289 253.092606,448.647400 
	C255.712219,448.269562 256.783051,450.531189 258.034332,452.251801 
	C261.463562,456.967255 264.859314,461.707336 268.236633,466.460144 
	C272.553009,472.534454 272.579529,472.603394 278.720276,468.477325 
	C280.682190,467.159119 282.470184,466.224091 284.562225,467.970856 
	C292.234406,474.376984 299.895355,480.796631 307.545624,487.228912 
	C308.509674,488.039490 309.010986,489.077637 308.354431,490.323883 
	C307.674133,491.615143 306.554657,492.197052 305.094666,492.245056 
	C303.423401,492.300018 302.329742,491.246887 301.154785,490.326813 
	C295.908966,486.219299 290.644318,482.135468 285.429565,477.988892 
	C283.572479,476.512238 281.946014,475.960724 279.592621,477.349121 
	C272.583832,481.484009 272.324219,481.360107 266.147736,476.203430 
	C264.740723,475.028687 263.334045,473.853516 261.926788,472.679047 
	C259.292694,470.480713 257.627380,471.455780 256.893402,474.413971 
	C255.691772,479.256775 256.568207,483.669769 260.163147,487.331329 
	C262.963348,490.183411 265.862122,492.941742 268.589722,495.860779 
	C269.833984,497.192383 270.123657,498.897400 268.720642,500.363556 
	C267.503723,501.635315 266.056915,501.366608 264.589172,500.637848 
	C263.160248,499.928406 262.080841,498.336823 260.179535,498.764801 
	C257.530945,505.440399 258.624634,508.171204 264.663086,509.887665 
	C265.857635,510.227203 266.994415,510.655457 267.133514,512.000732 
	C267.601562,516.528320 267.044739,521.012390 265.676514,525.302490 
	C264.673309,528.448120 261.097748,526.353516 259.080994,527.883972 
	C258.858093,529.663208 258.489563,531.458069 258.441254,533.261475 
	C258.370392,535.907166 260.131805,537.573364 262.169189,538.775208 
	C264.403290,540.093018 265.343872,537.794434 266.707031,536.760986 
	C270.551819,533.846436 271.076813,529.508728 271.656921,525.196838 
	C272.387970,519.762817 273.000977,514.309143 273.905914,508.904327 
	C274.210358,507.085907 274.373413,504.561005 277.151215,504.598145 
	C279.594482,504.630859 280.490906,506.730377 280.993378,508.631989 
	C281.668762,511.187836 282.045258,513.846497 282.299591,516.485229 
	C283.028442,524.046875 284.362122,531.191284 290.249664,536.891418 
	C294.075348,540.595337 293.491943,541.980774 288.734406,543.890625 
	C286.956329,544.604309 284.611633,544.693604 284.415619,547.353333 
	C284.229553,549.878296 285.875153,551.375671 287.724701,552.557678 
	C292.113556,555.362366 297.369781,556.805359 300.950836,561.397034 
	C301.596771,551.422302 301.639465,541.850586 301.554504,532.279907 
	C301.540436,530.695251 300.097595,529.710876 299.045105,528.664856 
	C296.327393,525.963684 293.546844,523.325745 290.819946,520.633667 
	C289.355835,519.188293 287.812439,517.551147 289.467529,515.463318 
	C291.444550,512.969421 293.425446,514.785095 295.077454,516.046753 
	C297.055054,517.557007 298.728546,519.458923 300.651886,521.048218 
	C306.185974,525.621155 312.657928,523.720825 319.358673,524.540588 
	C316.414215,518.652527 313.575012,517.389648 308.287140,518.864441 
	C306.433014,519.381592 304.457489,519.684753 303.428070,517.677246 
	C302.381897,515.637207 303.905609,514.086548 305.385681,513.083313 
	C306.866302,512.079590 308.707001,511.606842 310.390320,510.902435 
	C312.898529,509.852753 315.506866,511.997803 318.065735,510.891449 
	C316.582123,505.212097 312.692017,503.005829 308.351654,505.730255 
	C304.651672,508.052704 301.830139,507.214355 298.878815,504.736877 
	C293.264801,500.024048 287.595856,495.376282 282.006866,490.634186 
	C280.193024,489.095154 277.433258,487.696930 280.053162,484.656830 
	C282.433167,481.895050 284.652740,482.969299 286.937866,484.891418 
	C291.781769,488.965912 296.684509,492.970459 301.564362,497.002228 
	C303.342896,498.471649 305.291870,499.540009 307.415283,497.864655 
	C310.163269,495.696472 313.051880,495.344757 316.295319,496.978455 
	C317.629761,493.645081 317.655640,490.503601 317.654602,487.348358 
	C317.647247,464.687347 317.743805,442.025635 317.574677,419.365875 
	C317.542053,414.996796 318.957642,413.569000 323.325165,413.615631 
	C341.489105,413.809509 359.659821,413.487091 377.820801,413.789581 
	C389.089691,413.977295 399.933746,416.699738 410.033081,421.816589 
	C447.490967,440.794434 467.124268,485.597198 455.830597,526.920105 
	C449.244995,551.016296 435.157745,569.481018 413.076782,581.649475 
	C409.855438,583.424744 408.377716,582.672241 407.011475,579.561096 
	C405.205963,575.449707 403.268280,571.366394 401.002502,567.496399 
	C399.151337,564.334595 396.652466,561.760254 392.452393,564.308899 
	C391.223511,565.054626 390.085999,565.319641 388.954559,563.935974 
	C385.813080,560.094360 387.137573,552.791199 391.691559,550.533691 
	C400.632568,546.101562 407.739960,539.692078 412.451538,530.945984 
	C429.253174,499.756989 413.181305,449.808105 364.304993,450.166260 
	C357.422424,450.216675 357.271790,450.236786 357.264313,457.082825 
	C357.225616,492.414825 357.200012,527.746826 357.221985,563.078796 
	C357.223175,564.981506 356.674957,567.044434 358.078064,568.955750 
	C363.158569,566.315247 365.530304,562.458984 365.790100,556.641113 
	C366.175323,548.014771 367.224854,539.409485 368.243439,530.825195 
	C368.557404,528.179260 368.481537,524.347595 372.258331,524.285339 
	C376.536285,524.214661 376.282990,528.398315 377.188110,531.290466 
	C377.237122,531.447083 377.244629,531.619385 377.253632,531.785278 
	C377.694641,539.919189 379.379578,547.928101 379.440125,556.117310 
	C379.485352,562.233459 381.024017,567.971252 385.942993,572.272583 
	C387.966583,574.042114 388.876129,576.289490 387.307648,579.188660 
	C385.495087,579.281860 383.682465,579.373535 381.870026,579.468750 
	C379.948029,579.569641 379.257538,580.745544 379.436462,582.475159 
	C379.715454,585.171814 381.668335,586.524475 383.951172,587.197205 
	C386.661774,587.995972 387.145935,585.414001 388.095490,583.839355 
	C389.027649,582.293579 387.939667,580.609985 388.550415,579.134949 
M487.677917,760.109985 
	C493.430389,757.906921 499.198151,755.742859 504.932343,753.493164 
	C519.344788,747.838806 533.731018,742.117615 548.157654,736.500061 
	C550.228699,735.693604 552.972961,734.193665 554.156738,737.366821 
	C555.329529,740.510437 552.610107,741.719727 550.216370,742.639404 
	C548.676147,743.231079 546.903748,743.322083 545.475952,744.086670 
	C531.345337,751.653503 516.310791,757.115173 501.501984,763.101013 
	C495.159668,765.664673 488.785187,768.148804 482.425293,770.669067 
	C492.559814,770.846924 502.597717,773.909485 512.277283,770.044922 
	C535.000427,760.972778 557.727722,751.908936 580.375183,742.650513 
	C591.000549,738.306824 601.854919,734.256287 611.591187,728.168884 
	C616.819641,724.899963 621.537231,721.780518 628.019775,722.505371 
	C630.244995,722.754150 633.393250,722.388367 633.339294,719.359985 
	C633.283569,716.234009 630.005859,716.842529 627.858704,716.426941 
	C625.600525,715.989868 622.876526,717.056152 620.889648,714.165588 
	C625.378357,710.388977 631.669861,708.964111 634.096924,702.976929 
	C632.719177,701.839417 631.331482,701.471008 629.825867,701.315247 
	C628.137939,701.140625 626.321960,700.837463 625.768311,698.982422 
	C625.170349,696.978943 626.966675,695.973145 628.218628,695.026184 
	C637.671875,687.876587 634.610779,677.683960 635.948975,667.246887 
	C628.709961,670.906433 622.784729,673.901855 616.859436,676.897217 
	C620.028076,679.139282 623.024658,678.518677 625.914185,678.761902 
	C628.241577,678.957886 630.212524,679.813904 630.880310,682.219666 
	C631.529968,684.559875 629.992920,686.064148 628.212219,687.075623 
	C624.597778,689.128662 621.000305,691.296509 617.172791,692.876770 
	C560.863770,716.124573 504.296997,738.700684 446.840881,759.012024 
	C434.897949,763.233887 423.046082,766.064087 410.294891,765.116333 
	C403.765991,764.631165 397.133270,764.639709 390.225891,765.513306 
	C396.473511,770.748291 401.503845,772.736877 408.595490,772.646301 
	C422.914673,772.463501 437.232727,772.188171 451.551147,771.946045 
	C454.726013,771.892334 457.845703,771.594666 460.859558,770.426636 
	C469.551575,767.058289 478.271210,763.761169 487.677917,760.109985 
M550.337952,763.927551 
	C545.064026,766.325256 539.313965,767.716675 533.811768,771.031250 
	C534.920288,771.490967 535.213989,771.717407 535.510315,771.720825 
	C563.136292,772.037659 590.762024,772.415588 618.389038,772.577515 
	C624.506958,772.613403 629.604492,769.512939 634.351257,765.557556 
	C625.337708,765.026428 616.397522,765.022156 607.457275,765.029785 
	C605.459534,765.031494 603.456238,765.141052 601.556152,764.323303 
	C599.912292,763.615723 598.709351,762.579163 598.778503,760.609741 
	C598.844421,758.734131 599.828857,757.424255 601.561768,756.874207 
	C602.975769,756.425354 604.487793,756.044373 605.956177,756.045044 
	C619.437927,756.051147 632.934082,755.802368 646.395081,756.366333 
	C652.859436,756.637146 657.431030,754.104187 661.976807,749.993347 
	C659.367065,748.066223 656.663330,748.442810 654.073669,748.433777 
	C635.261902,748.367859 616.449219,748.417297 597.638489,748.253235 
	C593.059448,748.213318 588.764648,748.872742 584.507446,750.570801 
	C573.386963,755.006409 562.197266,759.268433 550.337952,763.927551 
M663.600830,707.074524 
	C666.165283,705.220581 669.329102,703.997925 671.020935,700.503662 
	C668.862793,700.029968 667.258362,699.649963 665.642090,699.329224 
	C662.846191,698.774231 659.012634,698.193665 658.908386,695.288940 
	C658.776062,691.600891 663.011047,692.271362 665.572693,691.785095 
	C669.790833,690.984497 673.395813,689.542603 675.658447,685.167053 
	C671.083069,683.408020 665.669617,685.120911 661.737000,680.642944 
	C666.711609,675.983154 676.021423,676.628113 677.079651,667.957336 
	C674.879211,665.843628 672.253662,666.510010 669.822449,666.287354 
	C667.982056,666.118835 665.846436,666.060364 665.312256,663.928467 
	C664.769897,661.764038 667.005188,661.381287 668.338928,660.561768 
	C671.616333,658.547913 674.892456,656.516968 677.081116,653.251526 
	C677.958191,651.942932 679.355835,650.323914 677.598816,648.828491 
	C675.996582,647.464844 674.121887,645.907593 671.787109,647.296509 
	C669.252014,648.804626 666.843323,650.525330 664.378174,652.154236 
	C665.253662,653.904236 667.783203,653.563599 667.885193,656.095459 
	C663.817139,659.257935 658.599121,660.578369 653.843018,662.781128 
	C644.701355,667.015198 644.865723,666.937195 645.118469,676.976318 
	C645.294128,683.954041 645.612732,690.500061 651.845337,695.354492 
	C654.923523,697.751892 653.497559,699.860168 650.089294,700.953430 
	C645.517029,702.420166 644.917786,704.613586 648.104126,708.363037 
	C649.271118,709.736267 650.817627,710.792725 652.222046,711.956177 
	C653.121765,712.701660 654.221863,713.353455 654.025085,714.721008 
	C653.790649,716.350647 652.298096,716.615540 651.071716,717.019226 
	C650.134521,717.327698 649.087036,717.290405 648.134644,717.566101 
	C647.095520,717.867065 646.473083,718.639343 646.429932,719.769348 
	C646.378784,721.108887 647.075562,721.923645 648.276123,722.425903 
	C652.982422,724.394836 661.477661,722.027344 664.940918,717.666260 
	C664.336548,717.360779 663.766174,717.060669 663.185852,716.781250 
	C660.769409,715.617310 656.316101,717.747375 655.880310,714.231079 
	C655.419189,710.509766 659.936707,709.573425 662.581726,707.743835 
	C662.718567,707.649231 662.865234,707.568909 663.600830,707.074524 
M386.032684,701.431274 
	C383.784088,701.016724 381.383209,700.964294 379.744263,698.845886 
	C380.281433,696.078186 382.695892,694.913208 384.428619,693.242859 
	C386.522522,691.224243 388.280426,689.056946 388.586975,686.070679 
	C388.994476,682.101685 389.446106,678.127747 389.607635,674.144958 
	C389.956390,665.548035 389.204773,666.079590 382.778717,665.833191 
	C381.458801,665.782593 380.133423,665.506958 378.839417,665.209473 
	C372.091980,663.658752 365.749664,656.535156 366.572601,651.191589 
	C364.516327,649.973206 362.415070,648.633179 360.224426,647.459961 
	C358.433197,646.500671 356.683502,646.608215 355.293060,648.315430 
	C353.880615,650.049805 354.334015,651.740662 355.520355,653.336243 
	C357.856384,656.478210 361.019104,658.624023 364.378815,660.509644 
	C365.933899,661.382446 367.883820,661.913757 367.494354,664.435059 
	C364.938293,666.349182 361.871826,666.056824 358.954651,666.512024 
	C355.194214,667.098877 354.494049,668.982422 356.746765,672.025940 
	C359.354584,675.549316 363.305573,677.024414 367.145935,678.635986 
	C368.252258,679.100281 369.433655,679.584229 369.430908,680.952881 
	C369.427490,682.651733 368.006531,683.057190 366.677460,683.286011 
	C363.163879,683.890747 359.636566,684.415649 355.695587,685.038574 
	C360.278839,694.807739 371.841156,687.645569 377.229004,695.142944 
	C369.904297,693.420959 366.206299,701.555237 359.061554,700.195801 
	C360.081055,702.998718 361.799377,704.139343 363.524811,704.958191 
	C368.030731,707.096252 372.889801,708.582031 377.163116,711.086975 
	C380.172058,712.850708 382.125519,712.302673 384.126190,710.160767 
	C386.331757,707.799622 389.325378,705.572266 386.032684,701.431274 
M530.500000,789.013000 
	C544.651184,789.002686 558.802429,788.965088 572.953552,788.992615 
	C580.953674,789.008118 587.853516,785.800842 594.524292,781.736145 
	C540.495483,781.736145 486.466675,781.736145 432.437866,781.736145 
	C438.816467,784.997498 445.198425,788.137451 452.137512,788.715332 
	C461.408325,789.487305 470.772339,789.788086 480.068115,789.469116 
	C496.548248,788.903625 513.022766,789.102112 530.500000,789.013000 
M327.380463,652.062988 
	C328.874725,653.215698 331.599396,653.338440 331.437927,655.892761 
	C331.289062,658.247742 328.874786,658.731384 327.169189,659.635620 
	C325.466675,660.538208 323.644257,661.214600 321.662781,662.082825 
	C325.873474,668.156250 333.180237,669.800232 337.256439,675.288147 
	C340.243561,673.914124 341.933502,671.794556 341.414734,668.893127 
	C340.920441,666.128662 338.158997,666.605835 336.081573,666.347168 
	C334.095032,666.099792 332.075989,665.938843 331.046112,663.674805 
	C331.607239,661.885620 333.300842,661.380615 334.668732,660.524231 
	C343.389069,655.064575 343.974823,650.895630 336.804108,644.020874 
	C335.061981,642.350647 335.014282,641.023376 336.667297,639.430298 
	C337.983734,638.161499 339.452789,637.000244 340.540131,635.555054 
	C342.949860,632.352295 342.479095,628.204407 339.174103,626.509827 
	C331.446289,622.547424 324.530273,617.291138 316.985077,613.060059 
	C315.742462,612.363281 314.391296,611.035889 312.900269,612.270264 
	C309.772491,614.859558 305.829346,615.554382 301.981567,616.890259 
	C307.851074,621.914551 309.588257,622.793762 316.138397,624.442688 
	C317.642548,624.821350 319.941010,624.201538 320.292511,626.380737 
	C320.658539,628.649841 318.311707,629.203369 316.871704,630.173218 
	C314.755951,631.598206 312.244263,631.920654 309.785187,632.361755 
	C307.714630,632.733032 305.499023,632.724121 303.773560,634.223328 
	C306.131012,638.700012 314.754791,640.395752 317.271362,636.739319 
	C317.687775,635.623718 315.992554,633.993469 317.917877,632.647095 
	C321.848633,632.983032 324.252228,636.349304 327.454834,638.250977 
	C330.959747,640.332275 330.174988,642.180237 327.035889,644.009216 
	C325.002441,645.193970 321.978455,644.528259 320.677094,647.180176 
	C322.196503,649.612793 324.668945,650.400208 327.380463,652.062988 
M634.059570,638.460205 
	C627.773315,633.936707 622.349304,628.243103 615.357971,624.134949 
	C608.207886,634.540649 601.313477,644.574219 593.779419,655.538696 
	C604.435669,656.152954 614.125793,657.096191 623.179138,655.141968 
	C632.238281,653.186646 641.629822,657.701843 650.868408,652.996399 
	C645.881775,647.134277 639.816345,643.508789 634.059570,638.460205 
M389.500671,755.956421 
	C398.965973,756.067627 408.451355,755.480042 417.889099,756.574036 
	C427.874207,757.731628 436.685699,754.209351 445.375610,749.587280 
	C417.992126,747.651062 390.617188,748.763733 361.992737,748.297791 
	C366.621979,753.052856 370.263184,756.365479 376.040497,756.044189 
	C380.182709,755.813721 384.346863,755.977600 389.500671,755.956421 
M302.654663,684.403503 
	C299.708038,684.403503 296.761414,684.403503 292.570862,684.403503 
	C295.239349,687.788269 296.157166,691.426575 299.859436,691.416077 
	C311.817719,691.382263 323.798096,691.995361 335.732086,690.749268 
	C338.548065,690.455261 340.187531,688.970276 340.049408,684.408447 
	C327.740967,684.408447 315.649506,684.408447 302.654663,684.403503 
M322.822784,553.736389 
	C319.125061,550.824280 315.427338,547.912109 311.602753,544.900024 
	C307.488922,551.598999 315.493073,552.304993 316.174927,556.172363 
	C311.053131,560.417786 309.607727,568.421204 312.956390,575.462158 
	C317.799866,567.749695 322.363617,577.739441 328.229065,575.653992 
	C325.421082,571.699951 321.848877,569.823669 318.865601,567.324707 
	C317.339569,566.046387 315.401215,564.902527 315.989929,562.539185 
	C316.564636,560.232178 318.585480,559.703552 320.690460,559.661865 
	C325.140778,559.573669 325.413177,557.514282 322.822784,553.736389 
M343.413818,734.802429 
	C344.763977,737.649231 346.878021,738.810791 350.150513,738.750793 
	C360.259033,738.565674 370.373291,738.716492 380.484314,738.625488 
	C382.397705,738.608215 385.208130,739.562622 385.081848,735.901855 
	C384.972412,732.729248 382.507996,733.387024 380.674133,733.373535 
	C369.236694,733.289246 357.798584,733.277710 346.360809,733.297852 
	C345.304596,733.299683 343.979004,732.798279 343.413818,734.802429 
M693.235779,689.668945 
	C694.601379,690.863831 696.300293,690.865601 697.954041,690.919373 
	C705.761780,691.172729 713.580933,691.217407 721.375488,691.682068 
	C726.264954,691.973633 729.209534,689.942383 730.906128,685.570984 
	C729.330139,683.881042 727.398315,684.448242 725.646667,684.483643 
	C720.497803,684.587524 715.352661,684.876892 710.203735,684.983337 
	C705.051758,685.089844 699.894897,684.985107 694.744324,685.125854 
	C691.895325,685.203674 690.517334,686.341064 693.235779,689.668945 
M328.543549,590.363525 
	C325.425171,588.392273 322.736877,585.915527 320.211365,583.251099 
	C318.133667,581.059143 315.906372,580.447937 313.961670,583.203064 
	C310.800720,587.681396 307.737427,586.542419 304.478699,583.419495 
	C302.799072,581.809814 301.003326,579.755188 298.459167,580.661743 
	C295.086609,581.863464 291.700073,582.311584 288.183746,582.298096 
	C286.733215,582.292542 285.503326,582.669495 285.380005,584.423523 
	C285.278107,585.871765 285.692871,587.089172 287.176086,587.633240 
	C289.962158,588.655334 292.761871,589.690186 295.612579,588.378601 
	C296.226837,586.585205 294.979767,584.729004 296.795563,583.246094 
	C300.420959,583.648193 302.542816,586.688843 305.239441,588.748352 
	C307.545441,590.509460 309.787445,591.839722 312.190216,589.088440 
	C314.936523,585.943848 317.593964,586.609558 320.400085,588.981079 
	C321.922363,590.267639 323.483917,591.566772 325.209259,592.537720 
	C326.972626,593.530212 328.764954,593.718506 328.543549,590.363525 
M308.931000,701.327454 
	C309.735291,704.265747 311.466431,706.629333 314.584747,706.715027 
	C322.027679,706.919556 329.482239,706.745789 336.931274,706.654907 
	C339.033630,706.629272 340.442322,705.471436 340.500122,703.312622 
	C340.559937,701.078125 338.676910,700.583435 337.047974,700.571289 
	C327.802002,700.502747 318.548004,699.860046 308.931000,701.327454 
M648.478455,733.457947 
	C646.954041,733.890259 646.168213,734.920837 646.634949,736.437073 
	C647.239014,738.399658 649.079895,738.567810 650.729675,738.582153 
	C659.377197,738.657654 668.025635,738.689331 676.673279,738.639893 
	C679.835632,738.621765 681.545837,736.570129 683.416443,733.355408 
	C671.491760,733.355408 660.395508,733.355408 648.478455,733.457947 
M281.668213,654.969788 
	C292.236511,654.849976 302.804779,654.730103 314.250366,654.600281 
	C311.026154,650.172852 281.623932,648.625427 273.879303,651.237854 
	C274.971130,655.033081 274.971130,655.033081 281.668213,654.969788 
M385.896790,718.152649 
	C376.328156,714.764954 366.791168,716.709961 356.384552,717.759766 
	C357.457947,718.956299 357.776703,719.620728 358.283722,719.830872 
	C366.836945,723.375610 375.826935,722.908508 384.766052,722.429199 
	C386.849701,722.317444 388.074036,720.794250 385.896790,718.152649 
M300.571045,597.222351 
	C299.182037,597.254028 297.867157,597.380981 297.900513,599.404358 
	C300.202637,601.184998 302.597168,602.941895 304.883118,604.830261 
	C307.578125,607.056396 309.973145,607.436279 312.652557,604.626770 
	C315.460114,601.682800 318.519653,602.147400 321.414459,604.773132 
	C322.516907,605.773132 323.662170,606.732056 324.843933,607.636597 
	C325.841370,608.400146 326.954437,608.767578 327.896423,607.563538 
	C328.920807,606.254150 327.954681,605.524109 327.012482,604.740479 
	C324.468048,602.624268 321.910706,600.517761 319.464508,598.290894 
	C317.145142,596.179382 315.200195,596.149719 313.279541,598.800232 
	C310.910553,602.069580 308.095886,601.759521 305.085846,599.657593 
	C303.871796,598.809814 302.543304,598.125916 300.571045,597.222351 
M696.557251,700.852539 
	C694.998413,701.141968 693.173950,700.511902 691.930725,702.201416 
	C691.924500,704.533447 692.424927,706.910767 695.301697,706.566406 
	C702.590820,705.693909 711.420044,710.637329 717.188477,700.618958 
	C710.192322,700.237915 703.803589,700.246704 696.557251,700.852539 
M730.895508,650.435364 
	C726.631958,651.412842 721.848816,649.923523 717.611938,652.594299 
	C719.197876,654.723999 720.938110,654.591919 722.560486,654.613037 
	C730.215576,654.712708 737.871399,654.787842 745.526978,654.789246 
	C747.086609,654.789490 749.396240,655.222717 749.431274,652.860901 
	C749.468445,650.350586 747.100891,650.417358 745.311584,650.391357 
	C740.819092,650.325928 736.324585,650.396790 730.895508,650.435364 
M265.498932,582.011902 
	C257.477936,581.110718 257.133759,581.379578 255.323212,590.017578 
	C259.745270,592.495667 263.132721,589.324463 266.858490,587.936401 
	C268.371704,587.372681 269.552521,586.701355 269.586548,584.873535 
	C269.629425,582.569946 268.059967,582.219360 265.498932,582.011902 
M419.263062,738.664001 
	C421.106049,738.366455 423.166412,739.345520 424.869049,737.817017 
	C419.590240,732.042542 412.593445,730.494995 405.775116,733.568726 
	C408.230164,739.629211 413.501617,738.661865 419.263062,738.664001 
M363.135345,637.671631 
	C359.454773,633.464172 357.027252,628.787903 356.766663,623.013611 
	C356.669342,620.856506 355.830902,618.514832 352.753540,617.675598 
	C351.686737,623.231018 352.712830,628.249084 354.452209,633.017639 
	C355.812805,636.747864 360.443878,639.095398 363.135345,637.671631 
M260.421844,552.095642 
	C263.740479,554.862183 267.020325,554.654053 269.717834,551.542419 
	C271.071228,549.981323 271.117889,548.213196 270.529846,546.398865 
	C270.124756,545.149170 268.965942,544.370728 267.808899,544.718201 
	C264.136566,545.820984 260.021576,545.758606 256.957947,548.128601 
	C257.016479,550.498840 258.697479,550.864990 260.421844,552.095642 
M764.092163,582.071045 
	C762.268311,582.112427 760.442932,582.120972 758.621033,582.205017 
	C756.981384,582.280701 755.152466,582.126343 754.568359,584.246887 
	C754.066345,586.069275 755.001648,587.424500 756.165405,588.698669 
	C759.990479,592.886780 762.938843,589.663086 766.063049,587.589233 
	C767.300415,586.767822 768.861511,586.225769 768.388977,584.271790 
	C767.951660,582.463257 766.509399,582.141296 764.092163,582.071045 
M299.301971,571.701416 
	C295.042145,563.679260 292.320099,562.468689 285.074219,565.373657 
	C286.993286,571.257690 294.263428,574.839478 299.301971,571.701416 
M763.690735,571.507568 
	C766.025269,571.809937 767.659668,571.185120 767.701904,568.467102 
	C767.739624,566.040833 766.359680,564.705200 764.131104,564.475098 
	C761.830811,564.237488 759.491272,564.352722 757.169189,564.364441 
	C755.983887,564.370483 754.768250,564.481201 754.494751,565.988525 
	C754.258484,567.290222 754.906067,568.242188 755.918823,568.942200 
	C758.027039,570.399475 760.580994,570.585571 763.690735,571.507568 
M380.795868,602.025146 
	C382.634277,605.413452 384.051910,609.182373 388.391144,610.709229 
	C390.312378,607.606873 392.165405,604.060852 389.756500,601.525269 
	C387.711334,599.372681 383.849701,599.260254 380.795868,602.025146 
M257.956451,566.310181 
	C256.866058,568.629150 257.168884,570.563782 259.770447,571.476074 
	C263.356903,572.733704 268.661713,569.381409 269.861908,565.015442 
	C265.953369,563.930542 262.174591,563.822998 257.956451,566.310181 
M257.301422,605.691589 
	C260.105865,605.674316 262.910797,605.682495 265.714508,605.627441 
	C266.878357,605.604553 268.139008,605.508545 268.465759,604.073853 
	C268.820221,602.517334 267.960999,601.506836 266.585632,601.030518 
	C263.217377,599.863892 259.773804,599.932678 256.399200,600.918640 
	C255.099182,601.298401 254.161377,602.448792 254.099731,603.882568 
	C254.030533,605.491760 255.357574,605.552368 257.301422,605.691589 
M582.156006,645.669617 
	C579.052795,649.036987 574.954041,651.574585 572.639709,656.130127 
	C577.852234,656.693176 587.220581,647.273621 588.606079,640.814087 
	C586.111572,641.644348 584.482300,643.548706 582.156006,645.669617 
M626.157227,737.735596 
	C628.581787,737.493103 630.993835,737.233215 631.591064,734.345398 
	C624.660583,730.111572 620.148499,734.179199 615.130676,738.102600 
	C618.918152,738.975830 622.151001,738.491211 626.157227,737.735596 
M268.691681,620.245239 
	C267.220398,616.651794 263.411316,615.952209 257.077881,618.112183 
	C258.206635,623.010376 263.325378,624.301575 268.691681,620.245239 
M313.591095,531.807678 
	C311.974304,531.268738 309.879700,530.598999 309.581085,532.934937 
	C309.034210,537.213013 313.094421,538.038696 315.682709,539.845764 
	C316.969238,540.744019 318.246948,540.298523 319.054993,538.928772 
	C319.798126,537.669189 319.089905,536.667236 318.246826,535.842896 
	C316.946960,534.571838 315.545166,533.405029 313.591095,531.807678 
M729.858887,583.235901 
	C729.342346,585.631836 728.095459,588.537048 732.162170,588.775269 
	C735.143005,588.949890 738.460144,587.863098 738.327881,584.453064 
	C738.177917,580.584839 734.500488,582.729919 732.359253,582.314026 
	C731.765686,582.198730 731.079163,582.562317 729.858887,583.235901 
M335.572815,722.089722 
	C336.976593,721.729309 338.809998,721.667908 338.470734,719.550476 
	C338.181366,717.744507 336.540924,717.356445 335.033325,717.428345 
	C332.483124,717.549927 329.728607,716.450378 327.443848,718.326782 
	C326.740753,718.904175 327.092255,719.951355 327.587952,720.592163 
	C329.525238,723.096680 332.199463,722.625549 335.572815,722.089722 
M462.038513,640.357666 
	C462.681763,637.319885 462.725098,634.551147 458.675751,634.096497 
	C456.833405,633.889709 455.075195,634.470215 455.301483,636.687317 
	C455.683685,640.432129 458.044403,641.688721 462.038513,640.357666 
M441.073425,638.558533 
	C441.967041,636.147583 441.959076,634.237915 438.618744,634.260437 
	C436.769409,634.272888 435.495209,635.186462 434.826538,636.897644 
	C434.378143,638.045044 434.265259,639.304871 435.408264,640.024963 
	C437.329193,641.234924 439.163147,640.906555 441.073425,638.558533 
M291.645966,602.601501 
	C291.069702,602.029358 290.591644,601.237549 289.898224,600.927429 
	C288.010162,600.083191 285.940826,599.670654 284.725586,601.890747 
	C283.932617,603.339417 284.334625,605.278748 286.107697,605.371094 
	C288.151917,605.477600 291.452087,607.667786 291.645966,602.601501 
M700.630371,718.275330 
	C699.256653,716.486450 697.338745,717.352478 695.679382,717.406372 
	C694.010254,717.460693 692.073303,718.087952 692.689392,720.278503 
	C693.249390,722.269531 695.125000,722.802246 697.084778,722.190308 
	C698.751099,721.669983 699.672791,720.275085 700.630371,718.275330 
M413.614990,635.807983 
	C411.085388,634.989380 408.639923,634.943359 406.267792,636.386841 
	C406.795624,638.591003 407.388947,640.500732 409.911285,640.513794 
	C412.602753,640.527771 413.489899,638.681946 413.614990,635.807983 
M289.585144,671.870850 
	C291.388672,669.611389 291.443573,667.573059 288.461792,666.464905 
	C287.099915,665.958801 284.882385,666.061584 284.802765,667.826660 
	C284.693787,670.242676 285.301086,672.980774 289.585144,671.870850 
M781.776367,526.777893 
	C781.314758,532.589539 785.326050,529.083740 787.694458,530.068298 
	C787.535339,525.492859 784.604492,526.656555 781.776367,526.777893 
M343.195801,588.228760 
	C341.912598,587.092529 340.853088,585.464050 338.521149,585.953918 
	C338.464691,588.746704 340.018890,590.353821 342.032471,591.103333 
	C344.776978,592.124817 345.011078,590.792908 343.195801,588.228760 
M343.177490,604.129333 
	C341.943024,603.244995 341.321930,601.309021 339.211761,601.770142 
	C338.814056,603.375122 339.088409,604.822937 340.138916,605.962036 
	C341.553619,607.495972 342.937683,606.900696 343.177490,604.129333 
M359.553864,606.312927 
	C361.502258,605.237488 361.072449,603.651062 360.269684,602.181580 
	C359.828094,601.373169 358.760559,601.337769 358.190521,602.043091 
	C356.905762,603.632812 357.596710,605.027649 359.553864,606.312927 
z"/>
<path fill="#000000" opacity="1.000000" stroke="none" 
	d="
M685.039062,423.887238 
	C699.001221,435.018433 706.531311,449.146851 706.928833,466.702423 
	C707.180664,477.824188 704.190369,488.092346 696.997253,496.862396 
	C695.001831,499.295258 692.951782,501.683197 690.999268,504.005463 
	C691.378845,506.243561 693.093201,507.209290 694.366333,508.421783 
	C705.940613,519.444641 708.866333,533.307434 707.879456,548.572998 
	C706.102905,576.053772 684.412720,596.161194 655.291565,601.091125 
	C639.069519,603.837341 622.623840,603.865540 607.044434,597.688904 
	C583.376526,588.305664 568.802795,571.294861 567.361023,545.224915 
	C566.594482,531.363159 570.269104,518.441284 581.225403,508.669983 
	C583.678162,506.482483 585.480103,504.533234 582.080383,501.435211 
	C559.867493,481.193390 565.373901,442.460876 589.800964,424.318207 
	C605.913025,412.351318 624.309937,409.225342 643.673584,410.097687 
	C658.552856,410.767975 672.591309,414.514557 685.039062,423.887238 
M648.805542,563.388062 
	C654.249329,562.294312 659.554260,560.781555 663.391541,556.448608 
	C672.797119,545.827881 667.875000,529.638550 653.738403,525.304626 
	C643.686707,522.223022 633.390503,522.306396 623.206909,524.859680 
	C612.552002,527.531067 606.980713,534.083130 606.962769,543.505127 
	C606.944519,553.087830 612.804993,560.162048 623.236450,562.783386 
	C631.395081,564.833557 639.667664,565.009033 648.805542,563.388062 
M667.293457,466.901245 
	C665.538513,456.676544 658.800598,451.484375 649.254028,449.360626 
	C641.027710,447.530518 632.722229,447.778259 624.503845,449.446045 
	C614.403381,451.495758 607.275696,459.139557 607.362000,467.503235 
	C607.448608,475.890808 613.651855,482.402008 624.059326,484.607330 
	C633.624695,486.634186 643.240601,486.299927 652.731995,484.089813 
	C661.367676,482.078949 666.950623,477.102783 667.293457,466.901245 
z"/>
<path fill="#000000" opacity="1.000000" stroke="none" 
	d="
M530.931274,589.974243 
	C530.996887,603.102661 530.997009,603.081482 518.154724,602.990173 
	C511.324646,602.941589 504.482819,602.743652 497.667419,603.063538 
	C493.074738,603.279053 491.571228,601.694397 491.596710,597.083923 
	C491.752380,568.930054 491.459167,540.772949 491.725006,512.620789 
	C491.904327,493.632782 490.374390,474.661987 491.392670,455.675812 
	C491.604736,451.721313 490.005890,449.989929 485.818817,450.100708 
	C477.161957,450.329742 468.494446,450.124786 459.832062,450.193542 
	C456.996765,450.216003 454.662170,449.530579 452.802368,447.211945 
	C445.299347,437.857788 437.707306,428.575043 430.189148,419.232941 
	C429.185242,417.985413 427.818176,416.810486 428.359161,414.276611 
	C477.339417,414.276611 526.419861,414.276611 575.515259,414.276611 
	C576.033813,416.613617 574.259888,417.414612 573.170776,418.508972 
	C563.888000,427.836090 554.551697,437.109924 545.252930,446.421143 
	C543.086426,448.590546 540.872803,450.306671 537.485352,450.252899 
	C531.116333,450.151794 531.073242,450.290985 531.063660,457.035370 
	C531.009399,495.185699 530.976013,533.335999 530.936646,571.486328 
	C530.930481,577.484070 530.930725,583.481873 530.931274,589.974243 
z"/>
<path fill="#000000" opacity="1.000000" stroke="none" 
	d="
M563.068481,330.573853 
	C585.210754,330.406189 606.863037,330.084259 628.514771,330.115417 
	C649.999512,330.146332 671.483765,330.532196 692.968201,330.765717 
	C693.634155,330.772949 694.305054,330.773499 694.964417,330.853638 
	C696.629639,331.056061 698.699707,331.194458 698.669556,333.341705 
	C698.634888,335.812134 696.334351,335.161621 694.814758,335.277069 
	C675.853943,336.717285 656.854919,336.153198 637.873657,336.174561 
	C562.738159,336.259064 487.602478,336.184937 412.466858,336.165131 
	C386.812378,336.158386 361.157928,336.143555 335.503448,336.115967 
	C333.173370,336.113464 330.833954,336.095428 328.516632,335.887024 
	C326.877380,335.739594 324.919373,335.491791 325.065918,333.180237 
	C325.204071,331.000366 327.011597,330.745361 328.750488,330.690094 
	C336.737976,330.436249 344.726593,329.975677 352.713806,329.994629 
	C414.182343,330.140472 475.650635,330.384583 537.119019,330.586761 
	C545.605286,330.614685 554.091797,330.580017 563.068481,330.573853 
z"/>
<path fill="#000000" opacity="1.000000" stroke="none" 
	d="
M444.000000,302.793671 
	C479.805237,302.895172 515.110413,303.046417 550.415710,303.083405 
	C579.214172,303.113556 608.012756,302.953308 636.811157,302.998749 
	C644.131348,303.010284 651.451660,303.461731 658.770081,303.757996 
	C660.731628,303.837402 663.373169,303.655853 663.322449,306.380859 
	C663.273010,309.036102 660.635986,308.228699 658.966858,308.314667 
	C622.021362,310.217529 585.049072,308.942108 548.089905,309.124878 
	C506.956482,309.328308 465.817993,309.263092 424.686981,308.823334 
	C407.038971,308.634644 389.407990,309.571625 371.769379,309.015167 
	C368.947784,308.926178 366.132263,308.555511 363.321808,308.244049 
	C362.059052,308.104126 361.106628,307.451324 361.048645,306.038727 
	C360.990082,304.612152 361.908539,303.888947 363.160645,303.702911 
	C365.131104,303.410217 367.123779,303.106354 369.108582,303.095886 
	C393.905579,302.964966 418.702820,302.886200 444.000000,302.793671 
z"/>
<path fill="#000000" opacity="1.000000" stroke="none" 
	d="
M460.000122,316.648529 
	C530.987976,316.684814 601.475891,316.718109 671.963745,316.769928 
	C674.123901,316.771515 676.295532,316.863770 678.439941,317.106506 
	C679.824280,317.263214 681.063416,317.972656 681.018433,319.631256 
	C680.974487,321.251312 679.831665,321.938873 678.362671,322.056885 
	C676.870422,322.176758 675.368469,322.219818 673.870728,322.220337 
	C565.389709,322.257721 456.908691,322.288147 348.427673,322.310394 
	C347.097900,322.310669 345.756836,322.285309 344.441376,322.114899 
	C342.959198,321.922852 341.955200,321.037537 341.983368,319.469788 
	C342.011536,317.899872 343.072174,317.043549 344.535919,316.889923 
	C346.353149,316.699249 348.190704,316.632629 350.019501,316.632385 
	C386.513031,316.627258 423.006592,316.639526 460.000122,316.648529 
z"/>
<path fill="#000000" opacity="1.000000" stroke="none" 
	d="
M630.953125,294.309143 
	C554.632263,294.335022 478.802277,294.345520 402.972290,294.409607 
	C396.814240,294.414825 390.657471,294.837738 384.498016,294.956482 
	C382.681580,294.991516 380.849579,294.708191 379.040039,294.459351 
	C377.619690,294.264008 376.441620,293.586823 376.436371,291.948669 
	C376.430756,290.191040 377.742889,289.833099 379.163330,289.702240 
	C382.476471,289.397003 385.789612,288.828735 389.102997,288.827240 
	C469.599518,288.791046 550.096069,288.812775 630.592590,288.843384 
	C632.586792,288.844147 634.612976,288.884003 636.565552,289.233521 
	C638.382812,289.558868 641.121033,289.331055 640.849182,292.248566 
	C640.606995,294.848053 638.152161,294.151001 636.442749,294.269104 
	C634.783508,294.383667 633.110779,294.302704 630.953125,294.309143 
z"/>
<path fill="#000000" opacity="1.000000" stroke="none" 
	d="
M449.000641,279.220734 
	C439.843018,279.246155 431.185394,279.266144 422.527740,279.285187 
	C421.861786,279.286652 421.194733,279.305237 420.530090,279.274567 
	C418.358398,279.174377 415.694305,279.317627 415.740601,276.287323 
	C415.783752,273.464844 418.408417,273.836548 420.333191,273.749756 
	C427.479187,273.427612 434.627625,272.942505 441.776031,272.927551 
	C483.398773,272.840515 525.021912,272.834167 566.644470,272.942993 
	C569.291016,272.949890 573.782227,271.557709 573.950745,275.834442 
	C574.133545,280.472260 569.676697,278.239105 567.338013,278.363708 
	C537.064087,279.977020 506.760376,278.609009 476.471619,279.097626 
	C467.483002,279.242645 458.491028,279.181671 449.000641,279.220734 
z"/>
<path fill="#000000" opacity="1.000000" stroke="none" 
	d="
M486.111267,256.886597 
	C540.232544,255.708023 574.421875,257.274933 577.565918,261.042297 
	C575.820557,262.103943 456.423370,263.924377 450.069550,262.964172 
	C448.436768,262.717438 446.694275,262.554626 446.211395,260.356476 
	C447.606628,257.532471 450.370575,258.114990 452.725586,258.000549 
	C463.685760,257.468048 474.684113,258.055084 486.111267,256.886597 
z"/>
<path fill="#000000" opacity="1.000000" stroke="none" 
	d="
M333.000061,381.685211 
	C344.481598,381.688477 355.463104,381.683258 366.444550,381.706024 
	C367.937622,381.709106 369.449341,381.733002 370.917572,381.966522 
	C372.171234,382.165924 372.993011,383.062012 372.999329,384.398560 
	C373.005524,385.719177 372.217010,386.652710 370.988098,386.920166 
	C369.703003,387.199799 368.351440,387.266968 367.028870,387.267273 
	C341.405457,387.273010 315.781860,387.294250 290.158875,387.183075 
	C287.566986,387.171814 283.207581,388.195465 283.156128,384.598236 
	C283.103363,380.908539 287.503967,381.904694 290.072906,381.870636 
	C304.213623,381.683136 318.357361,381.723419 333.000061,381.685211 
z"/>
<path fill="#000000" opacity="1.000000" stroke="none" 
	d="
M742.515503,468.524078 
	C735.049927,475.162720 727.881592,481.603241 720.641357,487.961914 
	C719.228271,489.202911 717.638062,491.242432 715.537537,489.182129 
	C713.426270,487.111206 714.724060,485.221375 716.445984,483.634125 
	C732.244751,469.071411 748.047363,454.512329 764.446472,440.619934 
	C765.871460,439.412750 767.410400,438.127350 769.165894,440.136566 
	C771.114868,442.367310 769.912537,444.165771 768.174500,445.719269 
	C759.730957,453.266235 751.253296,460.775024 742.515503,468.524078 
z"/>
<path fill="#000000" opacity="1.000000" stroke="none" 
	d="
M718.000244,387.203369 
	C700.541504,387.224945 683.582458,387.247375 666.623413,387.234863 
	C664.970093,387.233643 663.295593,387.141022 661.670044,386.862732 
	C660.268066,386.622711 659.199158,385.734985 659.245117,384.152313 
	C659.293518,382.486633 660.512390,381.952789 661.948608,381.810211 
	C662.774109,381.728302 663.608765,381.707550 664.439148,381.710632 
	C687.881470,381.797180 711.323914,381.881226 734.766113,381.999023 
	C736.702271,382.008759 738.821716,381.740479 740.641235,384.787415 
	C733.392822,388.431763 725.710083,386.280060 718.000244,387.203369 
z"/>
<path fill="#000000" opacity="1.000000" stroke="none" 
	d="
M758.271362,419.230103 
	C746.014160,430.216675 734.060791,441.008850 721.981140,451.657806 
	C719.810303,453.571533 717.188965,457.546875 714.154785,454.360291 
	C710.933105,450.976898 715.334290,448.852020 717.420166,446.954468 
	C729.208496,436.230499 741.123047,425.644623 753.064819,415.091156 
	C754.454529,413.863007 756.104553,411.995331 758.268921,413.748871 
	C760.150940,415.273682 760.046448,417.158325 758.271362,419.230103 
z"/>
<path fill="#000000" opacity="1.000000" stroke="none" 
	d="
M309.976379,449.838989 
	C306.885681,454.234894 304.459076,450.941223 302.442535,449.284149 
	C293.467407,441.908905 284.682251,434.302124 275.848206,426.755920 
	C273.451233,424.708374 271.122528,422.580963 268.764038,420.488464 
	C266.999725,418.923218 265.759766,417.018677 267.451752,414.883118 
	C269.258911,412.602295 271.533508,413.879791 273.202271,415.171722 
	C276.212891,417.502441 278.940338,420.195831 281.827484,422.689789 
	C289.616425,429.417725 297.460632,436.082245 305.207001,442.858612 
	C307.282959,444.674683 309.791229,446.287048 309.976379,449.838989 
z"/>
<path fill="#000000" opacity="1.000000" stroke="none" 
	d="
M585.360718,374.211884 
	C582.943359,373.992493 580.367554,374.179108 580.374329,371.458069 
	C580.382202,368.317932 583.182007,368.705902 585.273193,368.703552 
	C603.253174,368.683441 621.233093,368.709747 639.213013,368.749054 
	C640.367920,368.751556 641.548767,368.865295 642.669128,369.131348 
	C643.701355,369.376495 644.413757,370.130707 644.391479,371.289032 
	C644.370056,372.405365 643.768616,373.279266 642.690369,373.451965 
	C640.729004,373.766083 638.736084,374.038513 636.754883,374.049438 
	C619.775513,374.143036 602.795776,374.174103 585.360718,374.211884 
z"/>
<path fill="#000000" opacity="1.000000" stroke="none" 
	d="
M355.921265,355.706543 
	C358.571686,355.736176 360.736847,355.723999 362.898102,355.809601 
	C364.386261,355.868561 365.497650,356.532837 365.526367,358.194183 
	C365.555389,359.870300 364.400879,360.499176 362.960510,360.677032 
	C361.641785,360.839844 360.308472,360.960114 358.981079,360.965149 
	C343.169098,361.025238 327.356995,361.078796 311.544952,361.076385 
	C309.727966,361.076080 307.899689,360.799011 306.097626,360.516479 
	C304.637360,360.287567 302.872406,360.093018 303.106171,357.981598 
	C303.319519,356.054443 304.957947,355.804901 306.494232,355.793060 
	C313.818207,355.736572 321.142609,355.725616 328.466858,355.715790 
	C337.455994,355.703705 346.445160,355.708801 355.921265,355.706543 
z"/>
<path fill="#000000" opacity="1.000000" stroke="none" 
	d="
M573.892212,349.256104 
	C558.591003,349.246277 543.773560,349.248199 528.956055,349.223694 
	C527.296814,349.220947 525.625549,349.163849 523.982727,348.953522 
	C522.742981,348.794830 521.812561,348.040131 521.735596,346.667572 
	C521.648010,345.104797 522.783875,344.755707 524.008728,344.606781 
	C526.153931,344.345886 528.303101,343.918274 530.451294,343.914307 
	C545.933838,343.885681 561.416504,343.940002 576.899109,343.990143 
	C578.058472,343.993896 579.230896,344.090179 580.372498,344.286926 
	C581.558960,344.491455 582.702820,344.973816 582.772888,346.406097 
	C582.851562,348.016663 581.819763,348.899231 580.356262,349.042419 
	C578.374695,349.236359 576.370483,349.198517 573.892212,349.256104 
z"/>
<path fill="#000000" opacity="1.000000" stroke="none" 
	d="
M341.134155,348.396027 
	C333.531830,348.368439 326.375824,348.365997 319.220520,348.295898 
	C317.400177,348.278076 315.074280,348.313049 315.282013,345.716766 
	C315.456482,343.536346 317.664124,343.759186 319.281860,343.756683 
	C336.924988,343.729401 354.568268,343.724487 372.211365,343.763000 
	C374.178894,343.767273 376.720856,343.692871 376.604919,346.520538 
	C376.494995,349.201904 374.019592,349.208099 372.018036,349.165344 
	C361.871429,348.948486 351.726349,348.659637 341.134155,348.396027 
z"/>
<path fill="#000000" opacity="1.000000" stroke="none" 
	d="
M426.989136,368.696320 
	C430.808594,368.708435 434.131256,368.686981 437.452484,368.747009 
	C439.278259,368.779968 441.509308,368.697388 441.659515,371.166412 
	C441.828979,373.951904 439.514862,374.159271 437.469147,374.171936 
	C427.835876,374.231598 418.202240,374.242340 408.568756,374.248901 
	C402.422821,374.253113 396.276672,374.241852 390.131042,374.189423 
	C388.276489,374.173615 386.107758,374.113220 386.156525,371.567444 
	C386.201202,369.234436 388.142548,368.760468 390.114777,368.756012 
	C402.240417,368.728577 414.366089,368.714966 426.989136,368.696320 
z"/>
<path fill="#000000" opacity="1.000000" stroke="none" 
	d="
M323.999878,368.677795 
	C330.315704,368.669403 336.131805,368.630310 341.947296,368.674255 
	C343.540283,368.686279 345.676239,368.365936 345.818268,370.707092 
	C345.969940,373.207733 344.119812,374.108337 341.884338,374.197144 
	C339.892914,374.276306 337.897095,374.281158 335.903625,374.266144 
	C323.607971,374.173645 311.309814,374.172058 299.019073,373.871704 
	C296.651001,373.813812 292.480133,374.538574 292.554657,371.104462 
	C292.633881,367.453217 296.693756,368.846619 299.075104,368.792145 
	C307.213318,368.606018 315.357819,368.694580 323.999878,368.677795 
z"/>
<path fill="#000000" opacity="1.000000" stroke="none" 
	d="
M681.000854,343.700928 
	C688.484375,343.715607 695.467712,343.720734 702.451111,343.744568 
	C703.946289,343.749695 705.450439,343.734436 706.933838,343.888489 
	C708.527710,344.053955 710.048767,344.719269 709.805359,346.607422 
	C709.584351,348.321045 707.915527,348.228577 706.610474,348.235413 
	C699.461487,348.272797 692.310303,348.161011 685.163696,348.298615 
	C677.690857,348.442474 670.222839,348.824829 662.751587,349.069153 
	C661.259277,349.117950 659.754761,349.093811 658.268860,348.959747 
	C656.557312,348.805328 655.502930,347.797363 655.450684,346.047394 
	C655.386597,343.898407 657.012146,343.765442 658.551575,343.756500 
	C665.867859,343.713959 673.184326,343.713531 681.000854,343.700928 
z"/>
<path fill="#000000" opacity="1.000000" stroke="none" 
	d="
M521.589600,644.447021 
	C520.678650,648.571411 518.500427,649.153992 515.567383,646.747253 
	C508.259766,640.750671 500.994873,634.701294 493.771088,628.604065 
	C492.133087,627.221497 490.175568,625.528015 492.027710,623.174377 
	C493.986053,620.685913 496.046021,622.523804 497.586609,623.858459 
	C505.473389,630.691162 514.399719,636.301392 521.589600,644.447021 
z"/>
<path fill="#000000" opacity="1.000000" stroke="none" 
	d="
M636.824890,381.710449 
	C638.292542,381.753448 639.291016,381.744141 640.279236,381.840088 
	C641.672852,381.975372 642.960571,382.365906 643.047729,384.081818 
	C643.135742,385.812225 641.904846,386.322418 640.504333,386.530365 
	C639.359436,386.700348 638.199829,386.847839 637.044983,386.861938 
	C626.598694,386.989532 616.152039,387.089447 605.705322,387.184265 
	C604.712097,387.193298 603.707520,387.189636 602.726746,387.055939 
	C601.027710,386.824371 599.258484,386.422180 599.392334,384.200287 
	C599.524231,382.010162 601.266907,381.716309 603.019836,381.710388 
	C609.818665,381.687378 616.617554,381.687073 623.416443,381.686005 
	C627.728027,381.685364 632.039551,381.698273 636.824890,381.710449 
z"/>
<path fill="#000000" opacity="1.000000" stroke="none" 
	d="
M602.931519,355.721558 
	C604.750671,355.751587 606.087219,355.708740 607.409851,355.824738 
	C609.506653,356.008636 612.212585,355.708282 612.105042,358.883362 
	C612.002808,361.901215 609.353638,361.249573 607.512085,361.263245 
	C597.532471,361.337494 587.552002,361.303436 577.571838,361.306305 
	C575.908508,361.306793 574.242432,361.364044 572.582581,361.288055 
	C570.983398,361.214813 569.026245,361.552643 568.876709,359.069611 
	C568.721191,356.488007 570.659790,356.037354 572.508667,355.975800 
	C578.158691,355.787659 583.814453,355.755829 589.468384,355.710815 
	C593.792847,355.676361 598.117798,355.714233 602.931519,355.721558 
z"/>
<path fill="#000000" opacity="1.000000" stroke="none" 
	d="
M430.999146,355.815857 
	C436.643860,355.869110 441.791107,355.851471 446.932526,356.016022 
	C448.725250,356.073395 450.938782,356.282196 450.993042,358.728973 
	C451.051849,361.381683 448.785461,361.224609 446.992432,361.231201 
	C435.372498,361.273956 423.752289,361.284943 412.132355,361.252625 
	C410.139160,361.247070 407.755768,361.254974 407.919434,358.351349 
	C408.059448,355.867218 410.256714,355.867096 412.073578,355.849731 
	C418.215027,355.790985 424.357361,355.820709 430.999146,355.815857 
z"/>
<path fill="#000000" opacity="1.000000" stroke="none" 
	d="
M459.002014,343.768799 
	C466.159454,343.886414 472.820465,343.917664 479.472778,344.174469 
	C481.133759,344.238556 483.681152,344.099213 483.547394,346.708893 
	C483.436401,348.873779 481.147522,348.790375 479.583160,348.814972 
	C467.930603,348.998383 456.276428,349.086487 444.622498,349.162262 
	C442.680481,349.174896 440.804810,348.799530 440.897308,346.235748 
	C440.981750,343.894836 442.833496,343.804535 444.516724,343.785522 
	C449.178070,343.732849 453.840393,343.766418 459.002014,343.768799 
z"/>
<path fill="#000000" opacity="1.000000" stroke="none" 
	d="
M644.000793,361.175323 
	C638.682678,361.168427 633.863708,361.193756 629.045288,361.153259 
	C627.069275,361.136627 625.232178,360.596008 625.261536,358.188446 
	C625.289490,355.896698 627.191956,355.748291 628.884460,355.754211 
	C639.351929,355.790710 649.819519,355.849274 660.286255,355.973450 
	C662.066711,355.994568 664.440674,355.930328 664.432068,358.442261 
	C664.422546,361.227173 661.914978,361.109131 659.952820,361.137878 
	C654.802856,361.213409 649.651123,361.174377 644.000793,361.175323 
z"/>
<path fill="#000000" opacity="1.000000" stroke="none" 
	d="
M686.321167,368.703247 
	C699.404846,368.761566 712.029724,368.801422 724.653870,368.922546 
	C726.851685,368.943634 729.462524,368.340424 730.468323,371.273254 
	C730.047852,372.853485 728.817627,373.135101 727.687012,372.876709 
	C717.093750,370.455841 706.692932,374.139587 696.169006,373.802094 
	C692.688354,373.690491 689.196716,373.936768 685.714600,373.847046 
	C683.955139,373.801727 682.306519,373.038239 682.248291,370.989349 
	C682.176453,368.466217 684.295837,368.915253 686.321167,368.703247 
z"/>
<path fill="#000000" opacity="1.000000" stroke="none" 
	d="
M627.999695,343.746002 
	C633.325378,343.833801 638.154968,343.843079 642.975952,344.051758 
	C644.552612,344.119934 646.721252,344.176147 646.715271,346.433472 
	C646.709778,348.519867 644.757935,349.039429 643.070862,349.055786 
	C632.585938,349.157593 622.100037,349.166748 611.614441,349.177521 
	C609.918213,349.179260 608.683411,348.464844 608.628662,346.566864 
	C608.560303,344.198364 610.283691,343.944672 612.020508,343.913757 
	C617.179749,343.821899 622.340271,343.796448 627.999695,343.746002 
z"/>
<path fill="#000000" opacity="1.000000" stroke="none" 
	d="
M705.988953,355.791199 
	C710.297241,355.869171 714.114624,355.840759 717.915955,356.074036 
	C719.358887,356.162598 721.127686,356.681671 720.837341,358.696106 
	C720.589539,360.415833 718.926697,360.296173 717.636475,360.301941 
	C708.015686,360.345093 698.394409,360.310394 688.773865,360.373932 
	C685.295776,360.396881 681.819885,360.673370 678.341309,360.732178 
	C676.650269,360.760742 674.791626,360.611786 674.687805,358.333496 
	C674.581604,356.001953 676.387390,355.768402 678.121887,355.765900 
	C687.245178,355.752686 696.368408,355.777496 705.988953,355.791199 
z"/>
<path fill="#000000" opacity="1.000000" stroke="none" 
	d="
M467.429291,605.403931 
	C465.844666,603.489563 463.655945,601.723694 465.810211,599.611328 
	C467.820221,597.640381 469.518280,599.978699 470.901764,601.124512 
	C476.666382,605.898743 482.283417,610.850952 487.965485,615.725159 
	C489.417175,616.970398 490.883057,618.208679 489.269531,620.279175 
	C487.554169,622.480347 485.831543,621.609741 484.147858,620.188354 
	C478.556000,615.467773 472.770599,610.966431 467.429291,605.403931 
z"/>
<path fill="#000000" opacity="1.000000" stroke="none" 
	d="
M404.983093,381.679932 
	C408.794739,381.704590 412.111084,381.686371 415.424713,381.773010 
	C417.021759,381.814728 418.516815,382.375061 418.585236,384.240723 
	C418.655151,386.146912 417.070465,386.854126 415.566833,386.876892 
	C406.290741,387.017334 397.012329,387.065826 387.735199,387.027527 
	C386.123810,387.020874 384.867310,386.043365 384.941650,384.183228 
	C385.020172,382.217773 386.488770,381.781342 388.074280,381.763031 
	C393.544647,381.699829 399.015839,381.702576 404.983093,381.679932 
z"/>
<path fill="#000000" opacity="1.000000" stroke="none" 
	d="
M544.893677,697.142090 
	C543.117310,696.147888 541.648193,695.365112 540.224426,694.507080 
	C538.520447,693.480347 537.330933,692.083374 538.203918,689.986938 
	C539.045288,687.966614 540.888367,687.630188 542.816589,687.915833 
	C548.682434,688.784973 553.096008,692.557800 557.526489,695.946655 
	C559.920837,697.778076 558.326599,699.765259 555.752686,700.589050 
	C551.480103,701.956665 548.482483,699.212280 544.893677,697.142090 
z"/>
<path fill="#000000" opacity="1.000000" stroke="none" 
	d="
M504.062561,703.656250 
	C504.029297,708.487122 500.472290,708.319458 497.743225,707.924866 
	C492.909302,707.225952 488.789337,704.553955 484.937592,701.602356 
	C483.975616,700.865112 483.224670,699.876892 484.007111,698.606262 
	C485.201416,696.666809 487.237335,695.949097 489.192749,696.524597 
	C494.414215,698.061157 499.619019,699.764404 504.062561,703.656250 
z"/>
<path fill="#000000" opacity="1.000000" stroke="none" 
	d="
M373.644287,490.240387 
	C377.363922,493.571228 380.868622,496.598694 384.243256,499.764771 
	C385.746582,501.175140 386.936371,502.876709 384.911926,504.859131 
	C383.078156,506.654938 381.607635,505.452301 380.175903,504.238129 
	C376.138794,500.814484 372.069733,497.426086 368.109894,493.914825 
	C366.289398,492.300629 363.772461,490.392334 366.222351,487.770966 
	C368.410217,485.430023 370.401184,487.748840 372.252930,489.017456 
	C372.659515,489.295929 373.003571,489.665710 373.644287,490.240387 
z"/>
<path fill="#000000" opacity="1.000000" stroke="none" 
	d="
M423.817810,599.155029 
	C427.131287,602.226868 432.244110,604.029602 429.397888,610.544617 
	C422.430298,606.934937 416.962067,602.074402 412.179260,596.366882 
	C411.387939,595.422546 411.300018,594.139648 412.099243,593.115173 
	C413.118744,591.808472 414.628784,592.016968 415.709259,592.788330 
	C418.406555,594.714050 420.936615,596.873962 423.817810,599.155029 
z"/>
<path fill="#000000" opacity="1.000000" stroke="none" 
	d="
M768.308533,460.307373 
	C759.234619,466.182526 753.202942,475.445435 742.961182,480.500427 
	C744.384521,475.110931 767.780151,454.883942 772.501770,454.436493 
	C773.116150,457.701721 769.987549,458.331146 768.308533,460.307373 
z"/>
<path fill="#000000" opacity="1.000000" stroke="none" 
	d="
M394.925964,508.067200 
	C398.758575,511.504272 402.348785,514.681396 405.871826,517.931274 
	C407.157410,519.117249 408.108490,520.597961 406.630096,522.235229 
	C405.158905,523.864563 403.571594,523.045654 402.227020,521.968262 
	C398.483673,518.968750 394.760376,515.940735 391.116699,512.821777 
	C389.629303,511.548523 387.812805,510.036804 389.440552,507.821960 
	C391.011993,505.683746 392.914246,506.621887 394.925964,508.067200 
z"/>
<path fill="#000000" opacity="1.000000" stroke="none" 
	d="
M524.381165,637.693359 
	C523.471985,636.494507 522.727783,635.556213 524.217651,633.677612 
	C529.994385,637.768982 535.916748,641.691467 540.665527,647.142395 
	C541.374817,647.956543 541.221558,649.045898 540.313843,649.780640 
	C539.295776,650.604614 538.132202,650.548157 537.069214,649.909546 
	C533.918884,648.017212 531.330139,645.464478 528.886597,642.755981 
	C527.447937,641.161377 526.028320,639.549744 524.381165,637.693359 
z"/>
<path fill="#000000" opacity="1.000000" stroke="none" 
	d="
M718.863647,515.883789 
	C716.750061,517.774780 714.946045,519.492615 712.996765,521.025879 
	C711.788940,521.975952 710.317993,522.584473 708.990173,521.136841 
	C707.744873,519.779114 708.151672,518.276855 709.121643,517.049377 
	C711.821289,513.632935 715.359558,511.115417 718.743591,508.445953 
	C719.618347,507.755920 720.602051,507.797852 721.475281,508.533264 
	C722.515625,509.409302 722.700745,510.642944 722.095337,511.687775 
	C721.274902,513.103638 720.122131,514.326782 718.863647,515.883789 
z"/>
<path fill="#000000" opacity="1.000000" stroke="none" 
	d="
M734.906250,495.881714 
	C738.009460,493.604584 740.404907,490.728027 744.084229,490.300476 
	C745.170105,492.262177 744.077454,493.013062 743.250244,493.742950 
	C738.512207,497.923615 733.740112,502.065735 728.968811,506.208588 
	C727.821594,507.204681 726.477539,508.423401 725.116455,506.874298 
	C723.817566,505.395996 724.952087,504.088989 726.160217,503.078735 
	C728.965698,500.732697 731.803345,498.425018 734.906250,495.881714 
z"/>
<path fill="#000000" opacity="1.000000" stroke="none" 
	d="
M387.259460,348.075653 
	C385.575714,345.304932 386.417938,343.883698 389.134827,343.811554 
	C393.290466,343.701202 397.453186,343.777435 401.610870,343.867432 
	C403.258911,343.903076 404.593536,344.719238 404.738373,346.485596 
	C404.894501,348.389252 403.511597,349.222748 401.878204,349.187012 
	C397.099884,349.082428 392.246338,350.118591 387.259460,348.075653 
z"/>
<path fill="#000000" opacity="1.000000" stroke="none" 
	d="
M274.716980,452.266907 
	C277.164612,455.121338 280.516449,456.603302 281.948608,460.005493 
	C272.141968,455.325623 264.754578,447.808960 257.996429,439.507843 
	C264.904266,441.852997 268.833527,448.047852 274.716980,452.266907 
z"/>
<path fill="#000000" opacity="1.000000" stroke="none" 
	d="
M383.954895,355.720764 
	C387.131348,356.229828 391.702972,354.511749 391.791565,358.536285 
	C391.889160,362.971191 387.260406,360.810181 384.655365,361.247406 
	C382.881409,361.545135 381.011932,361.309418 379.186768,361.256653 
	C377.303070,361.202209 375.902527,360.433624 375.915894,358.339447 
	C375.928375,356.384460 377.428833,355.946381 379.006744,355.835297 
	C380.495361,355.730438 381.992828,355.751953 383.954895,355.720764 
z"/>
<path fill="#000000" opacity="1.000000" stroke="none" 
	d="
M369.661865,374.260742 
	C366.060516,374.273010 362.920532,374.280457 359.780731,374.257996 
	C358.165161,374.246460 356.807800,373.854156 356.655884,371.881592 
	C356.488831,369.712524 358.121002,369.619629 359.578003,369.343597 
	C363.011902,368.693024 366.474579,368.518799 369.939606,368.971344 
	C371.475739,369.171936 372.925720,369.794983 373.017242,371.632782 
	C373.112671,373.549896 371.788818,374.146301 369.661865,374.260742 
z"/>
<path fill="#000000" opacity="1.000000" stroke="none" 
	d="
M667.477417,368.781616 
	C669.645447,369.002472 670.658691,369.877350 670.426270,371.730927 
	C670.197144,373.558014 668.880066,374.151733 667.256165,374.185516 
	C664.950745,374.233521 662.641907,374.252136 660.337830,374.179321 
	C658.806946,374.130951 657.177979,373.832031 657.115479,371.887695 
	C657.053711,369.965942 658.771973,369.486420 660.181946,369.266632 
	C662.444458,368.913910 664.761047,368.907684 667.477417,368.781616 
z"/>
<path fill="#000000" opacity="1.000000" stroke="none" 
	d="
M598.694824,276.031494 
	C600.321106,276.478943 601.585327,276.811371 602.849609,277.143768 
	C597.747681,277.624390 592.764771,278.944672 587.651733,278.964203 
	C586.035889,278.970398 584.059509,278.635437 584.244141,276.331512 
	C584.394226,274.458282 586.096985,274.159119 587.617615,274.127045 
	C591.292053,274.049530 594.820374,274.961060 598.694824,276.031494 
z"/>
<path fill="#000000" opacity="1.000000" stroke="none" 
	d="
M427.444336,593.249634 
	C425.798096,591.505798 424.999542,589.804871 426.854218,588.305115 
	C428.350098,587.095581 430.114288,587.838623 431.395233,588.918762 
	C433.797150,590.943970 435.986511,593.191040 434.936096,597.119080 
	C431.608307,597.536255 429.888336,595.056152 427.444336,593.249634 
z"/>
<path fill="#000000" opacity="1.000000" stroke="none" 
	d="
M424.667969,344.400726 
	C425.475739,344.024994 425.958038,343.805939 426.431244,343.824066 
	C428.296936,343.895386 430.770325,343.161835 430.982086,346.119568 
	C431.123688,348.097473 429.613892,349.092804 427.755005,349.028290 
	C425.027466,348.933563 423.286804,347.833069 424.667969,344.400726 
z"/>
<path fill="#000000" opacity="1.000000" stroke="none" 
	d="
M596.726318,343.865906 
	C599.360840,344.638123 599.439453,346.148254 598.385132,347.795654 
	C597.331604,349.441925 595.567871,349.447510 593.923645,348.993622 
	C592.451416,348.587158 591.861816,347.246796 592.036011,345.864624 
	C592.377991,343.150726 594.598267,343.921906 596.726318,343.865906 
z"/>
<path fill="#000000" opacity="1.000000" stroke="none" 
	d="
M528.318787,653.573975 
	C525.602905,655.715332 523.801880,654.538086 522.772888,652.153625 
	C522.148193,650.705994 522.788818,648.869202 524.563171,648.789062 
	C527.392822,648.661011 528.496704,650.607056 528.318787,653.573975 
z"/>
<path fill="#000000" opacity="1.000000" stroke="none" 
	d="
M288.882202,447.448578 
	C290.812469,449.352783 293.153931,450.513428 293.959839,453.601746 
	C289.689209,453.089081 287.636230,450.480011 285.707886,447.685883 
	C286.943176,446.113861 287.789093,446.720093 288.882202,447.448578 
z"/>
</svg>